<svg xmlns="http://www.w3.org/2000/svg" viewBox="0 0 560 420" role="img" aria-labelledby="title desc">
  <title id="title">Advanced training illustration</title>
  <desc id="desc">Illustration representing advanced karate workout training.</desc>
  <rect width="560" height="420" rx="32" fill="#0f172a" />
  <circle cx="440" cy="100" r="70" fill="#f59e0b" opacity="0.18" />
  <path d="M120 260c10-30 42-42 70-34 22 8 40 28 48 52 16 44 8 90-24 104H132c-28-10-46-52-32-92z" fill="#e2e8f0" />
  <path d="M180 220l48-24 72 118-30 14-22-34-22 12-38-86z" fill="#0f172a" opacity="0.95" />
  <rect x="320" y="170" width="160" height="16" rx="8" fill="#334155" />
  <rect x="336" y="200" width="128" height="18" rx="9" fill="#475569" />
  <text x="60" y="360" fill="#e2e8f0" font-size="28" font-family="Inter, sans-serif">Advanced Workouts</text>
  <text x="60" y="395" fill="#94a3b8" font-size="16" font-family="Inter, sans-serif">Deep skill-building.</text>
</svg>