<svg xmlns="http://www.w3.org/2000/svg" viewBox="0 0 560 420" role="img" aria-labelledby="title desc">
  <title id="title">Beginner class illustration</title>
  <desc id="desc">Illustration representing beginner karate training.</desc>
  <rect width="560" height="420" rx="32" fill="#0f172a" />
  <circle cx="120" cy="120" r="68" fill="#fbbf24" opacity="0.15" />
  <path d="M104 220c10-18 34-28 58-26 22 2 42 16 54 34 20 30 24 76 4 96H86c-16-16-16-74 18-104z" fill="#fff" opacity="0.9" />
  <path d="M126 166c12-6 26-6 38 0l2 24-40-8 0-16z" fill="#0f172a" />
  <path d="M190 256c16-2 30 8 34 22 4 16-4 34-20 38-18 4-36-10-40-26-4-18 6-34 26-34z" fill="#fbbf24" />
  <path d="M320 94h88v32h-88z" fill="#475569" />
  <path d="M322 152h132v20H322z" fill="#334155" />
  <text x="60" y="360" fill="#e2e8f0" font-size="28" font-family="Inter, sans-serif">Beginner Class</text>
  <text x="60" y="395" fill="#94a3b8" font-size="16" font-family="Inter, sans-serif">Foundational training.</text>
</svg>