<svg xmlns="http://www.w3.org/2000/svg" viewBox="0 0 560 420" role="img" aria-labelledby="title desc">
  <title id="title">Fitness and flexibility illustration</title>
  <desc id="desc">Illustration representing karate fitness and flexibility training.</desc>
  <rect width="560" height="420" rx="32" fill="#0f172a" />
  <circle cx="430" cy="120" r="70" fill="#fbbf24" opacity="0.18" />
  <path d="M130 220c22-28 60-36 88-20 30 16 50 50 42 86-8 32-38 54-68 48-32-6-58-32-60-68-2-22 4-36 10-46z" fill="#e2e8f0" />
  <path d="M180 220l72-32 30 48-60 24-42-40z" fill="#0f172a" opacity="0.96" />
  <path d="M310 234l42 48 28-30-34-38-36 20z" fill="#475569" />
  <text x="60" y="360" fill="#e2e8f0" font-size="28" font-family="Inter, sans-serif">Fitness & Flexibility</text>
  <text x="60" y="395" fill="#94a3b8" font-size="16" font-family="Inter, sans-serif">Strength and mobility.</text>
</svg>