<svg xmlns="http://www.w3.org/2000/svg" viewBox="0 0 840 560" role="img" aria-labelledby="title desc">
  <title id="title">Karate hero illustration</title>
  <desc id="desc">Stylized karate training illustration in warm tones.</desc>
  <rect width="840" height="560" rx="40" fill="#111827" />
  <circle cx="620" cy="160" r="120" fill="#fbbf24" opacity="0.2" />
  <rect x="80" y="120" width="300" height="280" rx="40" fill="#1e293b" />
  <path d="M320 200c-20-8-80-20-120 0l-4 120 112 32 12-152z" fill="#f8fafc" />
  <path d="M210 330c24 14 60 18 84 0s24-46 12-68-36-36-64-34-52 24-56 56 12 38 24 46z" fill="#fde68a" />
  <path d="M199 215c4-10 18-18 30-16s22 12 28 20 6 18 2 28-14 22-28 22-28-14-30-30 2-18 2-24z" fill="#f8fafc" />
  <path d="M125 390h500l20 44H105l20-44z" fill="#0f172a" />
  <path d="M340 160l48 96 38-18-40 92-46-34-40 44-38-98 78-82z" fill="#475569" />
  <path d="M328 190l52 74 36-10-34 70-46-36-34 34-32-84 58-88z" fill="#f8fafc" opacity="0.9" />
  <rect x="480" y="320" width="260" height="120" rx="24" fill="#334155" />
  <text x="520" y="380" fill="#f8fafc" font-size="42" font-weight="700" font-family="Inter, sans-serif">Shito-Ryu</text>
  <text x="520" y="430" fill="#94a3b8" font-size="20" font-family="Inter, sans-serif">Discipline. Strength. Confidence.</text>
</svg>